<svg xmlns="http://www.w3.org/2000/svg" viewBox="0 0 64 64" role="img" aria-label="Praxis Dr. Schilling Favicon">
  <defs>
    <linearGradient id="bg" x1="0" y1="0" x2="1" y2="1">
      <stop offset="0%" stop-color="#23635d" />
      <stop offset="100%" stop-color="#1c4f4a" />
    </linearGradient>
  </defs>
  <rect x="4" y="4" width="56" height="56" rx="14" fill="url(#bg)" />
  <path d="M32 17c2.2 0 4 1.8 4 4v7h7c2.2 0 4 1.8 4 4s-1.8 4-4 4h-7v7c0 2.2-1.8 4-4 4s-4-1.8-4-4v-7h-7c-2.2 0-4-1.8-4-4s1.8-4 4-4h7v-7c0-2.2 1.8-4 4-4z" fill="#ffffff" />
  <circle cx="48" cy="16" r="6" fill="#cb8b37" />
</svg>
