<svg xmlns="http://www.w3.org/2000/svg" viewBox="0 0 64 64" role="img" aria-label="MVZ Gomaringen Favicon">
  <defs>
    <linearGradient id="bg" x1="0" y1="0" x2="1" y2="1">
      <stop offset="0%" stop-color="#1f5a50" />
      <stop offset="100%" stop-color="#164039" />
    </linearGradient>
  </defs>
  <rect x="4" y="4" width="56" height="56" rx="16" fill="url(#bg)" />
  <path
    d="M32 16c2.4 0 4.3 1.9 4.3 4.3v7.4h7.4c2.4 0 4.3 1.9 4.3 4.3s-1.9 4.3-4.3 4.3h-7.4v7.4c0 2.4-1.9 4.3-4.3 4.3s-4.3-1.9-4.3-4.3v-7.4h-7.4c-2.4 0-4.3-1.9-4.3-4.3s1.9-4.3 4.3-4.3h7.4v-7.4c0-2.4 1.9-4.3 4.3-4.3z"
    fill="#ffffff"
  />
  <circle cx="47" cy="17" r="5.5" fill="#2f6f7a" />
</svg>
